<?xml version="1.0" encoding="utf-8"?>
<!-- Generator: Adobe Illustrator 27.1.1, SVG Export Plug-In . SVG Version: 6.00 Build 0)  -->
<svg version="1.1" xmlns="http://www.w3.org/2000/svg" xmlns:xlink="http://www.w3.org/1999/xlink" x="0px" y="0px"
	 viewBox="0 0 600 650" style="enable-background:new 0 0 600 650;" xml:space="preserve">
<style type="text/css">
	.st0{fill:#323232;}
	.st1{fill:#515050;}
	.st2{fill:#D9D9D8;}
	.st3{fill:#AAABAA;}
	.st4{fill:#979696;}
	.st5{fill:#E9E8E8;}
	.st6{fill:#737374;}
	.st7{fill:#FFFFFF;}
	.st8{fill:#D95330;}
	.st9{fill:#EA9345;}
	.st10{fill:#EBD862;}
	.st11{fill:#E5D35D;}
	.st12{fill:#E38C3C;}
	.st13{fill:#ACA36B;}
	.st14{fill:#C0B880;}
	.st15{fill:#BF967E;}
	.st16{fill:#AD836B;}
	.st17{fill:url(#SVGID_1_);}
</style>
<g id="Layer_5">
	<rect x="149.96" y="599.95" class="st0" width="300" height="50"/>
	<rect x="449.96" y="499.95" class="st0" width="50" height="100"/>
	<rect x="99.96" y="499.95" class="st1" width="50" height="100"/>
	<rect x="49.96" y="349.95" class="st1" width="50" height="150"/>
	<rect x="499.96" y="349.95" class="st0" width="50" height="150"/>
	<rect x="549.96" y="99.95" class="st0" width="50" height="250"/>
	<rect x="-0.04" y="149.95" class="st1" width="50" height="200"/>
	<rect x="-0.04" y="99.95" class="st0" width="50" height="50"/>
	<rect x="49.96" y="49.95" class="st0" width="100" height="50"/>
	<rect x="449.96" y="49.95" class="st1" width="100" height="50"/>
	<rect x="149.96" y="-0.05" class="st0" width="150" height="50"/>
	<rect x="299.96" y="-0.05" class="st1" width="150" height="50"/>
	<rect x="49.96" y="149.95" class="st0" width="50" height="50"/>
	<rect x="99.96" y="199.95" class="st0" width="100" height="50"/>
	<rect x="399.96" y="199.95" class="st0" width="100" height="50"/>
	<rect x="499.96" y="149.95" class="st0" width="50" height="50"/>
	<rect x="199.96" y="249.95" class="st0" width="200" height="50"/>
	<rect x="49.96" y="249.95" class="st2" width="50" height="100"/>
	<rect x="99.96" y="299.95" class="st2" width="50" height="200"/>
	<rect x="149.96" y="399.95" class="st2" width="50" height="150"/>
	<rect x="199.96" y="499.95" class="st2" width="50" height="100"/>
	<rect x="249.96" y="399.95" class="st2" width="50" height="200"/>
	<rect x="199.96" y="349.95" class="st2" width="50" height="50"/>
	<rect x="249.96" y="299.95" class="st2" width="150" height="50"/>
	<rect x="249.96" y="349.95" class="st3" width="150" height="50"/>
	<rect x="299.96" y="399.95" class="st3" width="50" height="150"/>
	<rect x="149.96" y="549.95" class="st4" width="50" height="50"/>
	<rect x="49.96" y="199.95" class="st5" width="50" height="50"/>
	<rect x="99.96" y="249.95" class="st5" width="100" height="50"/>
	<rect x="499.96" y="199.95" class="st3" width="50" height="50"/>
	<rect x="349.96" y="399.95" class="st4" width="100" height="50"/>
	<rect x="349.96" y="449.95" class="st4" width="50" height="100"/>
	<rect x="349.96" y="499.95" class="st4" width="100" height="100"/>
	<rect x="299.96" y="549.95" class="st4" width="50" height="50"/>
	<rect x="449.96" y="299.95" class="st3" width="50" height="50"/>
	<rect x="449.96" y="349.95" class="st6" width="50" height="150"/>
	<rect x="499.96" y="249.95" class="st6" width="50" height="100"/>
	<rect x="149.96" y="299.95" class="st7" width="50" height="100"/>
	<rect x="199.96" y="399.95" class="st7" width="50" height="100"/>
	<rect x="199.96" y="299.95" class="st8" width="50" height="50"/>
	<rect x="399.96" y="349.95" class="st8" width="50" height="50"/>
	<rect x="449.96" y="249.95" class="st8" width="50" height="50"/>
	<rect x="399.96" y="449.95" class="st8" width="50" height="50"/>
	<rect x="399.96" y="299.95" class="st9" width="50" height="50"/>
	<rect x="399.96" y="249.95" class="st10" width="50" height="50"/>
	<rect x="199.96" y="149.95" class="st11" width="50" height="100"/>
	<rect x="149.96" y="149.95" class="st11" width="50" height="50"/>
	<rect x="249.96" y="99.95" class="st11" width="100" height="50"/>
	<rect x="299.96" y="149.95" class="st11" width="100" height="50"/>
	<rect x="249.96" y="149.95" class="st12" width="50" height="50"/>
	<rect x="299.96" y="199.95" class="st12" width="100" height="50"/>
	<rect x="399.96" y="149.95" class="st12" width="50" height="50"/>
	<rect x="349.96" y="99.95" class="st12" width="50" height="50"/>
	<rect x="199.96" y="99.95" class="st12" width="50" height="50"/>
	<rect x="99.96" y="149.95" class="st12" width="50" height="50"/>
	<rect x="149.96" y="99.95" class="st8" width="50" height="50"/>
	<rect x="249.96" y="199.95" class="st8" width="50" height="50"/>
	<rect x="399.96" y="99.95" class="st8" width="50" height="50"/>
	<rect x="449.96" y="149.95" class="st8" width="50" height="50"/>
	<rect x="49.96" y="99.95" class="st13" width="50" height="50"/>
	<rect x="249.96" y="49.95" class="st13" width="100" height="50"/>
	<rect x="499.96" y="99.95" class="st14" width="50" height="50"/>
	<rect x="449.96" y="99.95" class="st15" width="50" height="50"/>
	<rect x="399.96" y="49.95" class="st15" width="50" height="50"/>
	<rect x="199.96" y="49.95" class="st15" width="50" height="50"/>
	<rect x="349.96" y="49.95" class="st16" width="50" height="50"/>
	<rect x="149.96" y="49.95" class="st16" width="50" height="50"/>
	<rect x="99.96" y="99.95" class="st16" width="50" height="50"/>
</g>
<g id="Layer_7">
	<linearGradient id="SVGID_1_" gradientUnits="userSpaceOnUse" x1="478.0341" y1="582.8362" x2="270.2283" y2="375.0305">
		<stop  offset="0" style="stop-color:#FFFFFF"/>
		<stop  offset="0.2042" style="stop-color:#FCFCFC;stop-opacity:0.8366"/>
		<stop  offset="0.339" style="stop-color:#F3F3F3;stop-opacity:0.7288"/>
		<stop  offset="0.4536" style="stop-color:#E4E4E4;stop-opacity:0.6371"/>
		<stop  offset="0.557" style="stop-color:#CFCFCF;stop-opacity:0.5544"/>
		<stop  offset="0.653" style="stop-color:#B4B4B4;stop-opacity:0.4776"/>
		<stop  offset="0.7433" style="stop-color:#929292;stop-opacity:0.4054"/>
		<stop  offset="0.8293" style="stop-color:#6A6A6A;stop-opacity:0.3366"/>
		<stop  offset="0.9119" style="stop-color:#3B3B3B;stop-opacity:0.2705"/>
		<stop  offset="0.989" style="stop-color:#080808;stop-opacity:0.2088"/>
		<stop  offset="1" style="stop-color:#000000;stop-opacity:0.2"/>
	</linearGradient>
	<path class="st17" d="M398.05,554.17v56.74h51.91v-56.74H398.05z M441.48,602.3h-34.82v-38.74h34.82V602.3z M343.85,611.3h-11.74
		v-45h-9.78v-11.74h21.52V611.3z M343.85,504.86h-11.74v-45h-9.78v-11.74h21.52V504.86z M537.55,504.86h-11.74v-45h-9.78v-11.74
		h21.52V504.86z M440.7,505.43h-11.74v-45h-9.78v-11.74h21.52V505.43z M537.55,399.95h-11.74v-45h-9.78v-11.74h21.52V399.95z
		 M398.05,343.21v56.74h51.91v-56.74H398.05z M441.48,391.34h-34.82V352.6h34.82V391.34z M302.05,343.21v56.74h51.91v-56.74H302.05z
		 M345.48,391.34h-34.82V352.6h34.82V391.34z M206.96,554.17v56.74h51.91v-56.74H206.96z M250.39,602.3h-34.82v-38.74h34.82V602.3z
		 M250.39,503.32h-11.74v-45h-9.78v-11.74h21.52V503.32z"/>
</g>
</svg>
