<?xml version="1.0" encoding="utf-8"?>
<!-- Generator: Adobe Illustrator 27.1.1, SVG Export Plug-In . SVG Version: 6.00 Build 0)  -->
<svg version="1.1" id="Layer_2" xmlns="http://www.w3.org/2000/svg" xmlns:xlink="http://www.w3.org/1999/xlink" x="0px" y="0px"
	 viewBox="0 0 175.57 162.04" style="enable-background:new 0 0 175.57 162.04;" xml:space="preserve">
<style type="text/css">
	.st0{fill:none;stroke:#73401A;stroke-width:5;stroke-miterlimit:10;}
	.st1{fill:#597992;stroke:#597992;stroke-miterlimit:10;}
</style>
<polyline class="st0" points="60.03,159.64 53.24,137.73 81.68,141.64 75.68,160.95 "/>
<polyline class="st0" points="61.85,134.6 56.37,112.69 84.44,117.87 77.24,136.43 "/>
<polyline class="st0" points="63.68,110.08 60.29,87.12 88.65,94.49 79.07,112.69 "/>
<polyline class="st0" points="68.64,85.04 67.46,61.56 94.2,73.3 84.44,89.25 "/>
<path class="st1" d="M75.68,59.85L65.5,53.07l-7.04,15.65l-8.35-7.83l-3.39,18.52l-10.96-4.67l-10.17,24.5
	c0,0-24.11-44.87,44.82-60.26V28.81l-17.16,3.91l-4.65-11.48l-17,5.48l-8.35-11.22c0,0-2.09,7.57-22.43,7.04
	c0,0,23.48-50.35,86.35,2.87c0,0,89.74-27.91,87.39,45.39l-24-22.17l-10.7,9.91l-12.78-17.48l-6.78,11.22l-16.7-13.83l-3.13,5.74
	c0,0,57.13,40.96,14.09,75.91l2.09-26.35l-11.22-1.04l4.17-15.65l-9.91,0.52l1.04-17.04l-12.07,2.17l-0.95-2.17l-3.26,3.47
	l-4.85-1.83l-1.3-4.96L75.68,59.85z"/>
</svg>
